# xmcd
#
# Track frame offsets:
#	150
#	14815
#	32515
#	46920
#	63188
#	79258
#	93954
#	108936
#	124722
#	141867
#	156103
#	170065
#	185304
#	202808
#	224969
#	248617
#
# Disc length: 3665 seconds
# Revision: 0
# Processed by: cddbd v1.5.2PL0 Copyright (c) Steve Scherf et al.
# Submitted via: dBpowerAMP V12.0
#
DISCID=da0e4f10
DTITLE=Sandy Wagner - Nachts
DYEAR=2008
DGENRE=Discofox
TTITLE0=Nachts
TTITLE1=Sie tanzt den Rhythmus dieser Nacht (Dj Long Mix)
TTITLE2=Kommst du noch mit hoch
TTITLE3=Lass es mich wissen
TTITLE4=Wo warst du (Radio Version)
TTITLE5=Auf die Plätze fertig los (Neuaufnahme 2008)
TTITLE6=Machst du das immer so
TTITLE7=Joanna träumt
TTITLE8=U-Boot Kommandant
TTITLE9=Lady Casino
TTITLE10=Katz und Maus
TTITLE11=Heut' Nacht fängst du den wilden Stier ein
TTITLE12=Jetzt kommt die Feuerwehr
TTITLE13=Wo warst du (Rhythmus der Nacht Dj Maxi)
TTITLE14=Wagner Fox-Mix
TTITLE15=Wagner Party-Mix
EXTD=
EXTT0=
EXTT1=
EXTT2=
EXTT3=
EXTT4=
EXTT5=
EXTT6=
EXTT7=
EXTT8=
EXTT9=
EXTT10=
EXTT11=
EXTT12=
EXTT13=
EXTT14=
EXTT15=
PLAYORDER=
